<svg width="75" height="75" viewBox="0 0 75 75" fill="none" xmlns="http://www.w3.org/2000/svg">
<rect width="75" height="75" rx="15" fill="url(#paint0_linear_11_20)"/>
<path d="M50.5 44.5C48.75 44.5 47.2708 43.8958 46.0625 42.6875C44.8542 41.4792 44.25 40 44.25 38.25C44.25 36.5 44.8542 35.0208 46.0625 33.8125C47.2708 32.6042 48.75 32 50.5 32C52.25 32 53.7292 32.6042 54.9375 33.8125C56.1458 35.0208 56.75 36.5 56.75 38.25C56.75 40 56.1458 41.4792 54.9375 42.6875C53.7292 43.8958 52.25 44.5 50.5 44.5ZM38 57V53.5C38 52.5 38.2604 51.5729 38.7812 50.7188C39.3021 49.8646 40.0417 49.25 41 48.875C42.5 48.25 44.0521 47.7812 45.6562 47.4688C47.2604 47.1562 48.875 47 50.5 47C52.125 47 53.7396 47.1562 55.3438 47.4688C56.9479 47.7812 58.5 48.25 60 48.875C60.9583 49.25 61.6979 49.8646 62.2188 50.7188C62.7396 51.5729 63 52.5 63 53.5V57H38ZM33 37C30.25 37 27.8958 36.0208 25.9375 34.0625C23.9792 32.1042 23 29.75 23 27C23 24.25 23.9792 21.8958 25.9375 19.9375C27.8958 17.9792 30.25 17 33 17C35.75 17 38.1042 17.9792 40.0625 19.9375C42.0208 21.8958 43 24.25 43 27C43 29.75 42.0208 32.1042 40.0625 34.0625C38.1042 36.0208 35.75 37 33 37ZM13 57V50C13 48.5833 13.3542 47.2812 14.0625 46.0938C14.7708 44.9062 15.75 44 17 43.375C19.5 42.125 22.0938 41.1667 24.7812 40.5C27.4688 39.8333 30.2083 39.5 33 39.5C34.4583 39.5 35.9167 39.625 37.375 39.875C38.8333 40.125 40.2917 40.4167 41.75 40.75L39.625 42.875L37.5 45C36.75 44.7917 36 44.6562 35.25 44.5938C34.5 44.5312 33.75 44.5 33 44.5C30.5833 44.5 28.2188 44.7917 25.9062 45.375C23.5938 45.9583 21.375 46.7917 19.25 47.875C18.8333 48.0833 18.5208 48.375 18.3125 48.75C18.1042 49.125 18 49.5417 18 50V52H33V57H13ZM33 32C34.375 32 35.5521 31.5104 36.5312 30.5312C37.5104 29.5521 38 28.375 38 27C38 25.625 37.5104 24.4479 36.5312 23.4688C35.5521 22.4896 34.375 22 33 22C31.625 22 30.4479 22.4896 29.4688 23.4688C28.4896 24.4479 28 25.625 28 27C28 28.375 28.4896 29.5521 29.4688 30.5312C30.4479 31.5104 31.625 32 33 32Z" fill="#F9FBFA"/>
<defs>
<linearGradient id="paint0_linear_11_20" x1="0" y1="0" x2="75" y2="75" gradientUnits="userSpaceOnUse">
<stop stop-color="#5DB697"/>
<stop offset="0.5" stop-color="#58DBAE"/>
<stop offset="1" stop-color="#96DDC4"/>
</linearGradient>
</defs>
</svg>
