<svg width="446" height="72" viewBox="0 0 446 72" fill="none" xmlns="http://www.w3.org/2000/svg">
<path d="M121.52 71.536C114.928 71.536 109.296 70.032 104.624 67.024C99.952 64.016 96.336 59.856 93.776 54.544C91.28 49.168 90.032 42.992 90.032 36.016C90.032 29.168 91.312 23.056 93.872 17.68C96.432 12.304 100.112 8.08002 104.912 5.00801C109.776 1.87201 115.6 0.304016 122.384 0.304016C128.272 0.304016 133.232 1.29601 137.264 3.28001C141.36 5.20001 144.624 7.95201 147.056 11.536C149.488 15.12 151.184 19.344 152.144 24.208L137.072 24.88C136.368 21.104 134.864 18.128 132.56 15.952C130.32 13.712 126.96 12.592 122.48 12.592C118.576 12.592 115.312 13.616 112.688 15.664C110.128 17.712 108.208 20.496 106.928 24.016C105.712 27.536 105.104 31.536 105.104 36.016C105.104 40.56 105.712 44.592 106.928 48.112C108.208 51.568 110.128 54.288 112.688 56.272C115.312 58.256 118.672 59.248 122.768 59.248C125.776 59.248 128.368 58.64 130.544 57.424C132.784 56.208 134.512 54.544 135.728 52.432C137.008 50.32 137.776 47.92 138.032 45.232H122.48V34.576H152.336V70H143.312L142.544 55.408L144.272 56.176C143.632 59.184 142.224 61.84 140.048 64.144C137.872 66.448 135.184 68.272 131.984 69.616C128.848 70.896 125.36 71.536 121.52 71.536Z" fill="url(#paint0_linear_18_31)"/>
<path d="M187.284 71.152C182.036 71.152 177.46 70.064 173.556 67.888C169.716 65.648 166.708 62.512 164.532 58.48C162.42 54.448 161.364 49.712 161.364 44.272C161.364 38.832 162.42 34.128 164.532 30.16C166.708 26.128 169.716 22.992 173.556 20.752C177.396 18.512 181.94 17.392 187.188 17.392C192.308 17.392 196.756 18.512 200.532 20.752C204.308 22.992 207.22 26.192 209.268 30.352C211.38 34.512 212.436 39.472 212.436 45.232V48.112H176.244C176.436 52.208 177.524 55.248 179.508 57.232C181.556 59.216 184.244 60.208 187.572 60.208C190.004 60.208 192.02 59.696 193.62 58.672C195.284 57.648 196.468 56.08 197.172 53.968L211.668 54.832C210.324 59.952 207.476 63.952 203.124 66.832C198.772 69.712 193.492 71.152 187.284 71.152ZM176.244 39.28H197.652C197.46 35.504 196.404 32.688 194.484 30.832C192.628 28.976 190.196 28.048 187.188 28.048C184.18 28.048 181.684 29.04 179.7 31.024C177.78 32.944 176.628 35.696 176.244 39.28Z" fill="url(#paint1_linear_18_31)"/>
<path d="M221.336 70V18.544H234.296L234.872 33.616L233.048 33.136C233.56 29.296 234.584 26.224 236.12 23.92C237.72 21.616 239.704 19.952 242.072 18.928C244.44 17.904 247.032 17.392 249.848 17.392C253.56 17.392 256.696 18.192 259.256 19.792C261.88 21.392 263.864 23.664 265.208 26.608C266.616 29.488 267.32 32.912 267.32 36.88V70H252.92V41.68C252.92 38.928 252.696 36.592 252.248 34.672C251.8 32.752 251 31.312 249.848 30.352C248.696 29.328 247.096 28.816 245.048 28.816C242.04 28.816 239.736 29.936 238.136 32.176C236.536 34.352 235.736 37.52 235.736 41.68V70H221.336Z" fill="url(#paint2_linear_18_31)"/>
<path d="M280.791 70V1.84001H295.383V66.064L287.319 57.712H326.775V70H280.791Z" fill="url(#paint3_linear_18_31)"/>
<path d="M333.461 70V18.544H347.861V70H333.461ZM333.173 12.208V0.688011H348.053V12.208H333.173Z" fill="url(#paint4_linear_18_31)"/>
<path d="M381.507 71.152C376.195 71.152 371.747 70.416 368.163 68.944C364.579 67.408 361.827 65.36 359.907 62.8C358.051 60.176 356.995 57.168 356.739 53.776L371.331 53.296C371.779 55.728 372.803 57.616 374.403 58.96C376.003 60.304 378.371 60.976 381.507 60.976C384.067 60.976 386.051 60.56 387.459 59.728C388.931 58.896 389.667 57.616 389.667 55.888C389.667 54.8 389.411 53.904 388.899 53.2C388.387 52.432 387.363 51.792 385.827 51.28C384.355 50.704 382.147 50.192 379.203 49.744C373.763 48.784 369.507 47.664 366.435 46.384C363.363 45.104 361.187 43.44 359.907 41.392C358.627 39.344 357.987 36.848 357.987 33.904C357.987 28.976 359.875 25.008 363.651 22C367.491 18.928 373.219 17.392 380.835 17.392C385.699 17.392 389.763 18.16 393.027 19.696C396.355 21.232 398.915 23.344 400.707 26.032C402.563 28.656 403.715 31.664 404.163 35.056L389.667 35.632C389.475 33.968 388.963 32.56 388.131 31.408C387.363 30.192 386.371 29.264 385.155 28.624C383.939 27.92 382.467 27.568 380.739 27.568C378.179 27.568 376.195 28.112 374.787 29.2C373.443 30.224 372.771 31.6 372.771 33.328C372.771 34.608 373.059 35.664 373.635 36.496C374.275 37.264 375.299 37.904 376.707 38.416C378.115 38.928 380.003 39.344 382.371 39.664C387.875 40.432 392.227 41.52 395.427 42.928C398.691 44.272 401.027 45.968 402.435 48.016C403.843 50.064 404.547 52.592 404.547 55.6C404.547 58.928 403.587 61.744 401.667 64.048C399.747 66.352 397.059 68.112 393.603 69.328C390.211 70.544 386.179 71.152 381.507 71.152Z" fill="url(#paint5_linear_18_31)"/>
<path d="M433.148 70C427.836 70 423.932 68.784 421.436 66.352C418.94 63.856 417.692 59.92 417.692 54.544V6.44801H432.092V52.816C432.092 55.312 432.604 57.008 433.628 57.904C434.716 58.8 436.316 59.248 438.428 59.248H445.628V70H433.148ZM409.436 29.296V18.544H445.628V29.296H409.436Z" fill="url(#paint6_linear_18_31)"/>
<rect x="3" y="3" width="27" height="27" rx="7" stroke="#F6F8F7" stroke-opacity="0.75" stroke-width="6"/>
<rect x="3" y="41" width="27" height="27" rx="7" stroke="#F6F8F7" stroke-opacity="0.75" stroke-width="6"/>
<rect x="41" y="41" width="27" height="27" rx="7" stroke="#F6F8F7" stroke-opacity="0.75" stroke-width="6"/>
<path d="M48.9877 33L38 21.5L42 18L48.9877 25.8898L67.5 4.5L71 8L48.9877 33Z" fill="#49A283"/>
<defs>
<linearGradient id="paint0_linear_18_31" x1="86" y1="-27" x2="459.392" y2="40.6026" gradientUnits="userSpaceOnUse">
<stop stop-color="#49A283"/>
<stop offset="1" stop-color="#F6F8F7" stop-opacity="0.75"/>
</linearGradient>
<linearGradient id="paint1_linear_18_31" x1="86" y1="-27" x2="459.392" y2="40.6026" gradientUnits="userSpaceOnUse">
<stop stop-color="#49A283"/>
<stop offset="1" stop-color="#F6F8F7" stop-opacity="0.75"/>
</linearGradient>
<linearGradient id="paint2_linear_18_31" x1="86" y1="-27" x2="459.392" y2="40.6026" gradientUnits="userSpaceOnUse">
<stop stop-color="#49A283"/>
<stop offset="1" stop-color="#F6F8F7" stop-opacity="0.75"/>
</linearGradient>
<linearGradient id="paint3_linear_18_31" x1="86" y1="-27" x2="459.392" y2="40.6026" gradientUnits="userSpaceOnUse">
<stop stop-color="#49A283"/>
<stop offset="1" stop-color="#F6F8F7" stop-opacity="0.75"/>
</linearGradient>
<linearGradient id="paint4_linear_18_31" x1="86" y1="-27" x2="459.392" y2="40.6026" gradientUnits="userSpaceOnUse">
<stop stop-color="#49A283"/>
<stop offset="1" stop-color="#F6F8F7" stop-opacity="0.75"/>
</linearGradient>
<linearGradient id="paint5_linear_18_31" x1="86" y1="-27" x2="459.392" y2="40.6026" gradientUnits="userSpaceOnUse">
<stop stop-color="#49A283"/>
<stop offset="1" stop-color="#F6F8F7" stop-opacity="0.75"/>
</linearGradient>
<linearGradient id="paint6_linear_18_31" x1="86" y1="-27" x2="459.392" y2="40.6026" gradientUnits="userSpaceOnUse">
<stop stop-color="#49A283"/>
<stop offset="1" stop-color="#F6F8F7" stop-opacity="0.75"/>
</linearGradient>
</defs>
</svg>
