<svg width="75" height="75" viewBox="0 0 75 75" fill="none" xmlns="http://www.w3.org/2000/svg">
<rect width="75" height="75" rx="15" fill="url(#paint0_linear_11_21)"/>
<path d="M20 62C18.625 62 17.4479 61.5104 16.4688 60.5312C15.4896 59.5521 15 58.375 15 57V22C15 20.625 15.4896 19.4479 16.4688 18.4688C17.4479 17.4896 18.625 17 20 17H30.5C31.0417 15.5 31.9479 14.2917 33.2188 13.375C34.4896 12.4583 35.9167 12 37.5 12C39.0833 12 40.5104 12.4583 41.7812 13.375C43.0521 14.2917 43.9583 15.5 44.5 17H55C56.375 17 57.5521 17.4896 58.5312 18.4688C59.5104 19.4479 60 20.625 60 22V57C60 58.375 59.5104 59.5521 58.5312 60.5312C57.5521 61.5104 56.375 62 55 62H20ZM20 57H55V22H20V57ZM25 52H42.5V47H25V52ZM25 42H50V37H25V42ZM25 32H50V27H25V32ZM37.5 20.125C38.0417 20.125 38.4896 19.9479 38.8438 19.5938C39.1979 19.2396 39.375 18.7917 39.375 18.25C39.375 17.7083 39.1979 17.2604 38.8438 16.9062C38.4896 16.5521 38.0417 16.375 37.5 16.375C36.9583 16.375 36.5104 16.5521 36.1562 16.9062C35.8021 17.2604 35.625 17.7083 35.625 18.25C35.625 18.7917 35.8021 19.2396 36.1562 19.5938C36.5104 19.9479 36.9583 20.125 37.5 20.125Z" fill="#F9FBFA"/>
<defs>
<linearGradient id="paint0_linear_11_21" x1="0" y1="0" x2="75" y2="75" gradientUnits="userSpaceOnUse">
<stop stop-color="#5DB697"/>
<stop offset="0.5" stop-color="#58DBAE"/>
<stop offset="1" stop-color="#96DDC4"/>
</linearGradient>
</defs>
</svg>
